<svg version="1.1" id="Layer_1" xmlns="http://www.w3.org/2000/svg" xmlns:xlink="http://www.w3.org/1999/xlink" x="0px" y="0px"
	 width="100%" viewBox="0 0 1200 515" enable-background="new 0 0 1200 515" xml:space="preserve">
     

<path fill="green" opacity="1.000000" stroke="none" 
	d="
M709.289124,251.555939 
	C708.565186,260.269104 701.773621,265.252411 690.761108,265.752808 
	C674.980042,266.469879 659.684570,263.054169 644.318665,260.325653 
	C621.257202,256.230621 598.198608,252.265152 574.788940,250.531784 
	C566.970154,249.952866 559.174744,249.813126 551.362549,249.638687 
	C549.565674,249.598557 547.667603,249.218933 545.718384,250.707794 
	C543.589111,250.408829 544.243896,248.191330 542.555603,247.267883 
	C541.384644,248.537933 542.906006,250.014145 542.146301,251.482956 
	C533.180359,247.759277 523.995789,249.552551 515.094299,250.143631 
	C484.196655,252.195236 453.873749,258.393005 423.372375,263.371185 
	C412.344940,265.170959 401.067444,267.613190 389.680878,264.959412 
	C385.876495,264.072784 382.340424,262.819855 379.511200,260.006866 
	C378.196381,258.699585 376.779755,257.904266 374.755646,257.712433 
	C370.179565,257.278748 366.970978,254.773148 366.234253,250.052216 
	C365.339844,244.320618 367.756287,239.187057 372.508575,237.880554 
	C375.491089,237.060593 376.321960,235.381897 377.164185,232.916458 
	C385.338745,208.987122 399.232666,189.024078 419.350830,173.665115 
	C428.924561,166.356186 439.767670,162.652237 452.124146,161.766678 
	C458.111420,161.337601 461.683960,162.203827 466.956329,165.201965 
	C480.537598,172.924988 491.005890,183.302872 500.078857,195.616760 
	C510.048187,209.147141 518.333069,223.833023 528.711609,237.077866 
	C530.572998,239.453293 532.587341,241.619583 535.059143,243.375656 
	C536.765686,244.588013 538.257263,245.687317 540.275269,243.729675 
	C541.421448,242.617691 543.550354,242.458893 544.454956,243.498352 
	C547.740967,247.274094 549.639343,243.911224 551.574402,242.225937 
	C558.959900,235.793762 563.760742,227.320694 569.119934,219.313278 
	C579.017639,204.524475 588.328003,189.316422 601.590942,177.090820 
	C606.166626,172.873016 611.047058,169.223953 616.611023,166.478424 
	C618.693604,165.450806 620.614014,164.475235 621.960388,162.269150 
	C623.557556,159.652191 626.067261,159.018814 628.682007,161.869720 
	C627.648132,163.221313 626.075317,162.999008 625.240662,164.247009 
	C625.717773,166.379288 628.138733,165.588226 629.175293,167.260559 
	C628.557129,169.797211 626.700439,170.416229 624.877991,170.018951 
	C619.321289,168.807678 615.227234,171.650055 611.157532,174.584335 
	C599.909668,182.694122 591.506775,193.417725 583.798279,204.737854 
	C578.084351,213.128830 572.476196,221.592941 566.905945,230.080124 
	C563.368286,235.470291 559.210144,240.350662 553.806274,245.665176 
	C565.305481,245.364578 575.510193,246.553802 585.745056,247.469620 
	C606.664246,249.341507 627.238647,253.341187 647.895020,256.880951 
	C661.326660,259.182617 674.711792,261.927948 688.459229,261.682190 
	C695.916626,261.548859 702.224182,259.437531 706.299927,252.150101 
	C707.290588,251.360168 708.074341,251.222275 709.289124,251.555939 
z"/>
<path fill="red" opacity="1.000000" stroke="none" 
	d="
M629.000977,161.992722 
	C636.357483,162.370499 643.650818,162.223633 650.647034,165.047470 
	C662.488525,169.827042 672.287659,177.428070 680.684326,186.760223 
	C692.901367,200.338272 702.694458,215.472931 708.286926,233.074295 
	C709.306702,236.283890 709.926147,239.505600 710.028320,243.330719 
	C709.241455,244.797485 708.262634,244.819016 706.895996,244.185654 
	C703.623962,226.239288 695.127747,211.056732 684.201782,197.303085 
	C674.242188,184.765900 663.015991,173.468750 647.142212,168.165833 
	C641.646484,166.329880 636.026733,166.458755 630.057312,165.820435 
	C628.635437,165.088501 628.222229,164.181015 628.554688,162.629608 
	C628.730103,162.262970 628.911255,162.083389 629.000977,161.992722 
z"/>
<path fill="blue" opacity="1.000000" stroke="none" 
	d="
M707.111816,243.864349 
	C708.189331,244.206329 708.919250,244.223114 709.828979,244.027008 
	C714.070129,246.771790 714.120300,248.100082 709.979980,251.628632 
	C709.097412,251.655899 708.534607,251.573868 707.696777,251.591049 
	C702.775269,249.361588 702.567993,246.792328 707.111816,243.864349 
z"/>
<path fill="purple" opacity="1.000000" stroke="none" 
	d="
M542.271118,251.699829 
	C541.743713,251.445206 541.641357,251.104599 541.420471,250.881134 
	C540.080017,249.525253 538.922913,248.111313 540.190674,246.122833 
	C541.005005,244.845642 542.295044,244.431183 543.642212,245.001465 
	C545.992310,245.996353 545.894470,247.970444 545.350891,250.453369 
	C544.617798,251.720764 543.631042,251.699387 542.271118,251.699829 
z"/>
<path fill="orange" opacity="1.000000" stroke="none" 
	d="
M707.374878,243.748718 
	C705.241089,246.388092 704.603271,248.650513 707.302124,251.366638 
	C704.669678,259.440735 699.629395,262.768768 690.066650,263.112640 
	C674.640564,263.667450 659.643250,260.421204 644.600769,257.783386 
	C621.365601,253.708923 598.153442,249.652771 574.580811,247.847412 
	C566.994263,247.266373 559.378906,247.447937 551.085571,246.692780 
	C571.380066,226.476135 581.546753,199.320053 602.155945,180.053955 
	C605.456055,176.968903 608.881042,174.057755 612.711060,171.724838 
	C616.436768,169.455505 620.074036,166.323441 625.075928,168.871109 
	C626.197876,169.442612 627.734680,169.039474 628.644531,167.312378 
	C628.693604,166.359085 628.847961,165.811035 629.314880,165.072388 
	C647.117432,163.524857 660.809875,171.371689 673.050232,183.087250 
	C688.711304,198.076843 700.174377,215.588379 706.461060,236.412582 
	C707.150391,238.696091 707.168701,240.991882 707.374878,243.748718 
z"/>
<path fill="yellow" opacity="1.000000" stroke="none" 
	d="
M478.288544,175.640640 
	C493.669342,188.884995 504.030792,205.615509 514.827637,222.019730 
	C520.395691,230.479584 525.648560,239.208130 533.487305,245.583221 
	C532.972046,247.477188 531.763550,246.929626 530.909912,246.937119 
	C501.032715,247.200226 471.742706,252.338913 442.440460,257.452820 
	C427.074097,260.134552 411.793854,263.612427 396.030151,263.146545 
	C391.802765,263.021576 387.784363,262.230438 384.041382,260.201721 
	C381.565887,258.859955 381.262238,257.390503 383.120209,255.064270 
	C387.909729,249.067642 387.142975,242.286682 380.891235,238.501022 
	C377.958801,236.725311 379.104248,235.041443 379.751251,233.107300 
	C385.328217,216.435196 394.428070,201.844711 406.317322,188.999237 
	C415.318939,179.273682 425.137268,170.605499 438.228546,166.641495 
	C442.079498,165.475464 445.950226,164.702698 450.002502,164.815948 
	C452.353699,164.881653 454.609131,164.692535 456.006104,167.253174 
	C456.766083,168.646317 458.455505,169.563568 459.864624,168.878296 
	C465.928070,165.929642 469.877625,170.326508 474.376282,172.787094 
	C475.678436,173.499313 476.811615,174.520370 478.288544,175.640640 
z"/>
<path fill="#3E4243" opacity="1.000000" stroke="none" 
	d="
M374.699402,242.986633 
	C378.318329,242.639618 379.914795,244.382874 380.771637,247.618179 
	C381.093567,249.803391 380.149292,250.988998 378.388000,252.060913 
	C374.957001,252.764038 372.591003,252.020782 371.359894,248.425232 
	C370.655121,245.409058 371.765900,243.768112 374.699402,242.986633 
z"/>
<path fill="#3E4243" opacity="1.000000" stroke="none" 
	d="
M629.347290,164.625916 
	C629.352234,165.396942 629.207092,165.944901 628.888489,166.722137 
	C626.809753,167.269470 624.791138,168.124619 623.359741,165.968414 
	C622.776489,165.089874 622.674255,164.104309 623.244446,163.179718 
	C624.408325,161.292206 626.048401,161.110886 628.333862,162.121277 
	C628.885803,162.976273 629.041504,163.689575 629.347290,164.625916 
z"/>
<path fill="#EFF9FD" opacity="1.000000" stroke="none" 
	d="
M375.080780,242.627792 
	C373.380127,244.003616 371.810425,245.151764 371.371765,247.710266 
	C368.010590,247.864151 368.716797,245.885361 369.826111,244.386841 
	C371.016602,242.778656 371.786774,239.137451 375.080780,242.627792 
z"/>
<path fill="#3E4243" opacity="1.000000" stroke="none" 
	d="
M457.422760,166.473206 
	C455.709290,163.532623 456.761871,161.935806 459.414276,161.606323 
	C461.030090,161.405609 462.401001,162.692932 462.243225,164.349579 
	C461.985931,167.051163 460.374329,168.054688 457.422760,166.473206 
z"/>
<path fill="#EFF9FD" opacity="1.000000" stroke="none" 
	d="
M378.090088,252.515656 
	C378.881561,251.030823 380.316528,250.284363 380.715942,248.333237 
	C383.822662,248.034790 383.164337,249.795853 382.273224,251.278778 
	C381.400299,252.731369 380.741364,255.543167 378.090088,252.515656 
z"/>
</svg>